<?xml version="1.0" encoding="UTF-8" standalone="no"?>
<svg width="54px" height="32px" viewBox="0 0 54 32" version="1.1" xmlns="http://www.w3.org/2000/svg" xmlns:xlink="http://www.w3.org/1999/xlink" xmlns:sketch="http://www.bohemiancoding.com/sketch/ns">
    <!-- Generator: Sketch 3.5.2 (25235) - http://www.bohemiancoding.com/sketch -->
    <title>Page 1</title>
    <desc>Created with Sketch.</desc>
    <defs>
        <path id="path-1" d="M0,0.479 L53.704,0.479 L53.704,32 L0,32 L0,0.479 Z"></path>
    </defs>
    <g id="Welcome" stroke="none" stroke-width="1" fill="none" fill-rule="evenodd" sketch:type="MSPage">
        <g id="Desktop" sketch:type="MSArtboardGroup" transform="translate(-493.000000, -515.000000)">
            <g id="Page-1" sketch:type="MSLayerGroup" transform="translate(493.000000, 515.000000)">
                <mask id="mask-2" sketch:name="Clip 2" fill="white">
                    <use xlink:href="#path-1"></use>
                </mask>
                <g id="Clip-2"></g>
                <path d="M53.7036,27.8213 C53.2636,29.2773 52.0056,30.0773 51.0376,31.1053 C50.2576,31.9363 49.2686,32.2013 48.1796,31.8453 C47.7866,31.7163 47.3856,31.4863 47.0936,31.1973 C44.6766,28.8103 42.2856,26.3973 39.8836,23.9953 C37.4506,21.5653 35.0106,19.1403 32.5786,16.7093 C30.7836,14.9143 28.9936,13.1123 27.1996,11.3133 C27.1006,11.2143 26.9916,11.1233 26.8466,10.9913 C26.4286,11.4023 26.0216,11.7943 25.6226,12.1943 C22.4826,15.3303 19.3456,18.4683 16.2096,21.6073 C13.0216,24.7973 9.8356,27.9863 6.6476,31.1753 C5.5726,32.2523 3.8636,32.2683 2.7496,31.2003 C2.1206,30.5993 1.4726,30.0083 0.9126,29.3443 C0.5356,28.8963 0.2986,28.3323 -0.0004,27.8213 L-0.0004,26.7923 C0.5336,25.2383 1.8716,24.3423 2.9506,23.2503 C7.1186,19.0343 11.3226,14.8543 15.5156,10.6633 C18.6156,7.5623 21.7156,4.4603 24.8246,1.3663 C26.0106,0.1853 27.6936,0.1823 28.8776,1.3633 C32.6596,5.1363 36.4326,8.9193 40.2126,12.6963 C44.2126,16.6963 48.2116,20.6973 52.2186,24.6893 C52.8406,25.3073 53.4216,25.9403 53.7036,26.7923 L53.7036,27.8213 Z" id="Fill-1" fill="#000D42" sketch:type="MSShapeGroup" mask="url(#mask-2)"></path>
            </g>
        </g>
    </g>
</svg>